<svg id="Capa_1" enable-background="new 0 0 512 512" height="512" viewBox="0 0 512 512" width="512" xmlns="http://www.w3.org/2000/svg"><g><path d="m352.476 249.665c-21.704-26.603-52.297-40.665-88.476-40.665h-16c-36.178 0-66.773 14.062-88.476 40.665-19.684 24.128-30.524 57.63-30.524 94.335 0 8.284 6.716 15 15 15h224c8.284 0 15-6.716 15-15 0-36.705-10.841-70.207-30.524-94.335z" fill="#b9dd39"/><path d="m264 209h-8v150h112c8.284 0 15-6.716 15-15 0-36.705-10.841-70.207-30.524-94.335-21.704-26.603-52.297-40.665-88.476-40.665z" fill="#90cc1c"/><path d="m401 305h-290c-16.542 0-30 13.458-30 30v162c0 8.284 6.716 15 15 15h320c8.284 0 15-6.716 15-15v-162c0-16.542-13.458-30-30-30z" fill="#f5f0eb"/><path d="m401 305h-145v207h160c8.284 0 15-6.716 15-15v-162c0-16.542-13.458-30-30-30z" fill="#dad0cb"/><path d="m326.81 26.884c-17.612-17.588-42.097-26.884-70.81-26.884-28.712 0-53.198 9.296-70.81 26.884-19.469 19.441-29.341 47.294-29.341 82.782 0 59.439 43.748 128.534 100.151 128.534 56.402 0 100.15-69.095 100.15-128.534 0-35.488-9.872-63.341-29.34-82.782z" fill="#fed2a4"/><path d="m356.15 109.666c0-35.488-9.872-63.341-29.341-82.782-17.611-17.588-42.096-26.884-70.809-26.884v238.2c56.402 0 100.15-69.095 100.15-128.534z" fill="#ffbd86"/><path d="m356.15 109.666c0-4.788-.187-9.432-.545-13.938-.002-.017-.014-.032-.015-.048-2.52-31.16-13.5-55.52-32.62-72.399-17.25-15.231-40.4-23.281-66.97-23.281-28.71 0-53.2 9.3-70.81 26.89-19.27 19.24-29.13 46.71-29.33 81.681 0 .37-.01.729-.01 1.1 0 .62 0 1.24.02 1.86 0 .439.01.87.03 1.31-.01.03-.01.061 0 .101.12 4.76.52 9.569 1.18 14.39h13.81c63.49 0 85.24-17.18 98.24-27.44 1.71-1.35 3.92-3.09 5.28-3.92 1.21.511 2.98 1.391 4.49 2.141 10.291 5.085 27.427 13.565 60.483 13.775.188.001 8.087.002 16.723.003.014-.744.044-1.488.044-2.225z" fill="#ff712f"/><path d="m269.13 99.89c1.71-1.35 3.92-3.09 5.28-3.92 1.21.511 2.98 1.391 4.49 2.141 10.291 5.085 27.427 13.565 60.483 13.775.188.001 8.087.002 16.723.003.014-.741.044-1.485.044-2.223 0-4.788-.187-9.432-.545-13.938-.002-.017-.014-.032-.015-.048-2.52-31.16-13.5-55.52-32.62-72.399-17.25-15.231-40.4-23.281-66.97-23.281v109.261c5.452-3.313 9.613-6.595 13.13-9.371z" fill="#ff4c04"/><path d="m497 512h-482c-8.284 0-15-6.716-15-15s6.716-15 15-15h482c8.284 0 15 6.716 15 15s-6.716 15-15 15z" fill="#6c6c6c"/><path d="m497 482h-241v30h241c8.284 0 15-6.716 15-15s-6.716-15-15-15z" fill="#404040"/><circle cx="256" cy="400" fill="#6c6c6c" r="15"/><path d="m271 400c0-8.284-6.716-15-15-15v30c8.284 0 15-6.716 15-15z" fill="#404040"/></g></svg>